<?xml version="1.0" encoding="UTF-8" standalone="no"?>
<svg
   xmlns:dc="http://purl.org/dc/elements/1.1/"
   xmlns:cc="http://creativecommons.org/ns#"
   xmlns:rdf="http://www.w3.org/1999/02/22-rdf-syntax-ns#"
   xmlns:svg="http://www.w3.org/2000/svg"
   xmlns="http://www.w3.org/2000/svg"
   xmlns:sodipodi="http://sodipodi.sourceforge.net/DTD/sodipodi-0.dtd"
   xmlns:inkscape="http://www.inkscape.org/namespaces/inkscape"
   width="177.17"
   height="177.17"
   shape-rendering="geometricPrecision"
   image-rendering="optimizeQuality"
   fill-rule="evenodd"
   clip-rule="evenodd"
   viewBox="0 0 50 50"
   version="1.1"
   id="svg915"
   sodipodi:docname="BMountedKing.svg"
   inkscape:version="1.0.1 (3bc2e813f5, 2020-09-07)">
  <metadata
     id="metadata919">
    <rdf:RDF>
      <cc:Work
         rdf:about="">
        <dc:format>image/svg+xml</dc:format>
        <dc:type
           rdf:resource="http://purl.org/dc/dcmitype/StillImage" />
        <dc:title></dc:title>
      </cc:Work>
    </rdf:RDF>
  </metadata>
  <sodipodi:namedview
     pagecolor="#ffffff"
     bordercolor="#666666"
     borderopacity="1"
     objecttolerance="10"
     gridtolerance="10"
     guidetolerance="10"
     inkscape:pageopacity="0"
     inkscape:pageshadow="2"
     inkscape:window-width="3840"
     inkscape:window-height="2050"
     id="namedview917"
     showgrid="false"
     inkscape:zoom="2.4637354"
     inkscape:cx="144.41226"
     inkscape:cy="274.86944"
     inkscape:window-x="-12"
     inkscape:window-y="-12"
     inkscape:window-maximized="1"
     inkscape:current-layer="svg915" />
  <defs
     id="defs909">
    <linearGradient
       id="0"
       x1="21.253"
       y1="37.592"
       x2="77.64"
       y2="37.469"
       gradientUnits="userSpaceOnUse">
      <stop
         stop-color="#fff"
         id="stop904" />
      <stop
         offset="1"
         stop-color="#fff"
         stop-opacity="0"
         id="stop906" />
    </linearGradient>
    <linearGradient
       id="0-1"
       x1="21.129999"
       y1="37.220001"
       x2="77.760002"
       y2="37.469002"
       gradientUnits="userSpaceOnUse"
       gradientTransform="translate(33.015048,17.666827)">
      <stop
         stop-color="#fff"
         id="stop1626" />
      <stop
         offset="1"
         stop-color="#fff"
         stop-opacity="0"
         id="stop1628" />
    </linearGradient>
  </defs>
  <g
     id="g1603"
     transform="matrix(0.61791332,0,0,0.61791332,7.8566509,17.750905)">
    <path
       fill="#1f1a17"
       d="m 26.18,9.395 c 2.599,0.169 5,0.838 7.222,2.02 2.21,1.168 4.098,2.675 5.656,4.513 1.092,1.287 2.117,2.845 3.082,4.665 0.974,1.812 1.744,3.742 2.32,5.774 0.66,2.371 1.084,4.851 1.253,7.459 0.178,2.599 0.263,5.01 0.263,7.23 v 5.402 H 42.115 32.105 15.468 c -0.152,0 -0.22,-0.406 -0.212,-1.211 0.008,-0.813 0.059,-1.465 0.161,-1.964 0.059,-0.398 0.22,-0.957 0.466,-1.685 0.254,-0.728 0.66,-1.609 1.245,-2.65 0.262,-0.533 0.889,-1.304 1.88,-2.32 0.999,-1.016 2.134,-2.201 3.429,-3.539 0.745,-0.762 1.321,-1.719 1.744,-2.879 0.423,-1.151 0.601,-2.201 0.533,-3.15 -0.61,0.5 -1.279,0.906 -2.01,1.219 -3.505,1.253 -6.05,3.073 -7.611,5.452 -0.119,0.152 -0.491,0.821 -1.118,2.02 -0.33,0.627 -0.618,1.058 -0.847,1.287 -0.313,0.313 -0.771,0.491 -1.363,0.525 C 10.842,37.605 10.122,37.165 9.606,36.217 8.912,36.42 8.294,36.505 7.743,36.471 6.82,36.124 6.151,35.751 5.733,35.353 4.886,34.506 4.344,33.668 4.082,32.821 3.828,31.974 3.701,31.068 3.701,30.095 c 0,-1.389 0.855,-3.226 2.582,-5.512 2.02,-2.625 3.09,-4.631 3.217,-6 0,-0.593 0.059,-1.262 0.178,-2.01 0.102,-0.517 0.305,-1.01 0.618,-1.49 0.22,-0.33 0.364,-0.559 0.432,-0.677 0.076,-0.127 0.212,-0.313 0.415,-0.559 0.144,-0.203 0.271,-0.356 0.373,-0.457 0.093,-0.11 0.22,-0.254 0.373,-0.44 0.178,-0.212 0.406,-0.457 0.694,-0.745 4.452895,-5.7090199 3.277147,-6.4847036 7.213,-1.93 0.55,-1.871 1.626,-3.387 3.226,-4.538 1.321,0.923 2.371,2.151 3.15,3.666"
       id="path911"
       sodipodi:nodetypes="ccccccscccscccccccccccscccccscccccccccccc" />
    <path
       fill="url(#0)"
       d="m 15.688,17.786 c 0.364,-0.186 0.542,-0.279 0.542,-0.279 0.499,-0.195 0.652,-0.559 0.474,-1.092 -0.195,-0.491 -0.576,-0.66 -1.143,-0.491 -1.947,0.711 -3.294,2.02 -4.04,3.92 -0.118,0.542 0.076,0.914 0.593,1.118 0.516,0.161 0.864,-0.017 1.041,-0.55 0.136,-0.279 0.229,-0.466 0.296,-0.542 0.186,0.144 0.423,0.245 0.72,0.296 1.01,0.161 1.6,-0.279 1.761,-1.338 0.051,-0.364 -0.034,-0.711 -0.246,-1.041 m -4.115,16.764 c 0.059,-0.152 0.169,-0.373 0.322,-0.669 0.279,-0.694 0.415,-1.109 0.415,-1.245 -0.025,-0.457 -0.271,-0.694 -0.72,-0.694 -0.33,0 -0.711,0.474 -1.16,1.414 -0.068,0.136 -0.169,0.254 -0.296,0.347 -0.449,0.466 -0.381,0.855 0.195,1.168 0.533,0.313 0.94,0.212 1.245,-0.322 m 14.63,-9.203 c 1.16,-1.524 1.727,-3.217 1.71,-5.08 -0.068,-0.55 -0.381,-0.821 -0.94,-0.821 -0.762,0 -1.058,0.279 -0.898,0.838 0.051,0.914 -0.034,1.668 -0.271,2.261 -0.381,0.94 -0.804,1.642 -1.261,2.108 -0.254,0.5 -0.102,0.864 0.449,1.092 0.525,0.245 0.931,0.119 1.211,-0.398 m -6.477,-12.11 c -0.076,-0.593 -0.059,-1.236 0.051,-1.93 -0.991,0.195 -1.922,0.66 -2.802,1.389 -0.525,0.279 -0.652,0.669 -0.373,1.168 0.279,0.508 0.669,0.593 1.168,0.246 0.347,-0.186 0.669,-0.356 0.957,-0.508 0.288,-0.161 0.618,-0.279 0.999,-0.364 m 23.25,31.454 c -0.017,0 0,-0.449 0.042,-1.346 0.131,-3.107 0.095,-6.221 0.076,-9.33 -0.017,-2.21 -0.313,-4.411 -0.889,-6.613 -0.84,-3.31 -2.124,-6.485 -4.072,-9.296 -2.634,-3.845 -6.814,-6.03 -11.286,-6.976 0.126,0.766 0.033,1.54 0.076,2.311 1.6,0.542 3.116,1.219 4.538,2.032 4.241,2.554 6.414,7.275 7.197,11.93 1.272,6.154 0.453,11.557 0.813,17.289 h 3.505 M 9.438,30.139 C 9.912,29.8 9.963,29.411 9.582,28.945 9.184,28.564 8.752,28.53 8.27,28.843 7.26,29.503 6.721,30.375 6.653,31.451 6.67,31.993 7,32.255 7.627,32.222 8.22,32.171 8.508,31.866 8.491,31.299 8.626,30.774 8.94,30.385 9.439,30.139"
       id="path913"
       style="fill:url(#0)" />
  </g>
  <g
     id="g2245"
     transform="matrix(0.61494103,0.16232433,-0.16232433,0.61494103,-1.1333005,-18.656244)">
    <g
       fill="#1f1a17"
       id="g1637"
       transform="translate(33.015048,17.666826)">
      <path
         d="M 25.821,12.02 H 24.06 V 8.769 h -2.066 c -0.559,0 -0.838,-0.271 -0.838,-0.821 V 7.923 c 0,-0.542 0.279,-0.813 0.838,-0.813 H 24.06 V 5.002 c 0,-0.584 0.296,-0.872 0.889,-0.872 0.576,0 0.872,0.288 0.872,0.872 V 7.11 h 2.134 c 0.542,0 0.813,0.271 0.813,0.813 v 0.025 c 0,0.55 -0.271,0.821 -0.813,0.821 l -2.117,0.025 -0.017,3.226"
         id="path1633" />
      <path
         d="m 11.03,37.744 -0.813,-4.64 C 10.2,33.104 10.175,33.07 10.141,33.002 10.056,32.884 9.819,32.731 9.43,32.545 9.049,32.35 8.592,32.029 8.084,31.563 7.356,30.953 6.789,30.454 6.382,30.073 5.976,29.7 5.611,29.286 5.281,28.837 4.271,27.448 3.706,25.772 3.596,23.797 3.427,21.9 4.197,20.004 5.899,18.116 c 1.719,-1.88 4.047,-2.769 6.968,-2.65 1.092,0.068 2.379,0.33 3.844,0.796 0.483,0.195 0.974,0.39 1.482,0.576 0.5,0.195 0.999,0.389 1.499,0.584 0.262,0.135 0.5,0.271 0.694,0.398 -0.085,-0.347 -0.127,-0.694 -0.127,-1.041 0,-1.287 0.457,-2.388 1.38,-3.302 0.914,-0.906 2.024,-1.372 3.311,-1.389 1.287,0 2.388,0.466 3.302,1.38 0.906,0.914 1.363,2.02 1.363,3.285 0,0.262 -0.034,0.61 -0.102,1.041 0.229,-0.144 0.457,-0.271 0.669,-0.372 0.762,-0.33 1.761,-0.72 3.01,-1.16 1.422,-0.483 2.701,-0.754 3.844,-0.821 2.921,-0.136 5.241,0.754 6.943,2.65 1.668,1.888 2.447,3.785 2.328,5.681 -0.127,1.973 -0.703,3.649 -1.71,5.04 -0.33,0.449 -0.703,0.864 -1.118,1.253 -0.406,0.39 -0.965,0.881 -1.66,1.473 -0.542,0.466 -1.01,0.796 -1.389,0.982 -0.381,0.186 -0.601,0.347 -0.669,0.457 -0.017,0.034 -0.034,0.059 -0.051,0.076 -0.017,0.017 -0.025,0.034 -0.025,0.051 l -0.796,4.665 1.643,6.121 c -0.83,0.745 -2.684,1.355 -5.554,1.837 -2.879,0.483 -6.206,0.72 -9.974,0.72 -3.835,0 -7.214,-0.254 -10.118,-0.754 C 11.974,45.185 10.145,44.55 9.4,43.796 l 1.634,-6.05"
         id="path1635" />
    </g>
    <path
       fill="url(#0)"
       d="m 57.964048,38.341827 c -0.034,-0.161 -0.076,-0.305 -0.127,-0.423 -0.093,-0.33 -0.178,-0.567 -0.245,-0.72 -0.051,-0.11 -0.119,-0.254 -0.195,-0.432 -0.085,-0.169 -0.169,-0.356 -0.254,-0.559 -0.051,-0.119 -0.11,-0.271 -0.186,-0.457 -0.068,-0.195 -0.136,-0.373 -0.186,-0.533 -0.042,-0.152 -0.068,-0.305 -0.068,-0.474 0,-0.872 0.415,-1.312 1.262,-1.312 0.881,0 1.312,0.432 1.312,1.287 0,0.22 -0.034,0.373 -0.093,0.474 -0.237,0.627 -0.356,0.965 -0.372,1.016 -0.254,0.5 -0.406,0.821 -0.474,0.965 -0.119,0.271 -0.195,0.508 -0.22,0.72 -0.051,0.102 -0.085,0.186 -0.102,0.262 -0.017,0.076 -0.034,0.136 -0.051,0.186 m -2.777,8.56 c -2.066,0.034 -3.954001,0.135 -5.673,0.322 -1.71,0.178 -3.03,0.44 -3.979,0.77 -0.491,-0.618 -1.067,-1.228 -1.719,-1.854 -0.66,-0.618 -1.228,-1.202 -1.727,-1.744 -0.83,-0.847 -1.236,-1.77 -1.236,-2.777 0,-1.245 0.203,-2.151 0.618,-2.726 0.44,-0.669 1.135,-1.16 2.057,-1.482 0.923,-0.322 1.863,-0.483 2.803,-0.483 1.193999,0 2.328,0.262 3.42,0.796 1.075,0.559 1.786999,1.01 2.134,1.338 1.126,1.143 2.01,2.379 2.632999,3.717 0.212001,0.5 0.372001,1.194 0.483001,2.074 0.11,0.889 0.169,1.566 0.186,2.049 m 2.777,-4.318 c 0.119,-0.466 0.212,-0.787 0.296,-0.965 0.169,-0.643 0.356,-1.194 0.576,-1.643 0.093,-0.279 0.237,-0.601 0.432,-0.974 0.186,-0.373 0.389,-0.804 0.61,-1.279 0.127,-0.279 0.271,-0.627 0.415,-1.033 0.152,-0.406 0.305,-0.804 0.449,-1.202 0.135,-0.33 0.203,-0.686 0.203,-1.067 0,-0.813 -0.296,-1.499 -0.872,-2.066 -0.576,-0.576 -1.279,-0.864 -2.108,-0.864 -1.964,0 -2.955,0.991 -2.955,2.955 0,0.381 0.068,0.737 0.202999,1.067 0.364001,1.075 0.643001,1.82 0.838001,2.235 0.22,0.474 0.415,0.906 0.601,1.279 0.178,0.372 0.339,0.694 0.466,0.974 0.22,0.55 0.398,1.092 0.55,1.643 0.034,0.093 0.127,0.415 0.296,0.94 m -0.889,6.223 c 0,-0.66 -0.017,-1.575 -0.051,-2.735 -0.034,-1.168 -0.161,-2.142 -0.372,-2.921 -0.677,-2.21 -1.702,-3.996 -3.082,-5.351 -0.711,-0.694 -1.795,-1.346 -3.268,-1.939 -1.685,-0.66 -3.285,-0.991 -4.792,-0.991 -2.608,0 -4.547,0.931 -5.8,2.803 -0.711,0.991 -1.067,2.235 -1.067,3.717 0,1.626 0.398,2.955 1.185,3.996 0.415,0.593 1.211,1.329 2.388,2.21 1.168,0.872 2.168,1.685 2.972,2.43 1.439,-0.313 3.064999,-0.584 4.876999,-0.821 1.812001,-0.229 4.149001,-0.364 7.010001,-0.398 m 13.784,11.735001 -0.737001,-2.929 c -3.226,-0.737001 -7.280999,-1.109 -12.157999,-1.109 -4.826001,0 -8.865,0.372998 -12.11,1.109 l -0.787,2.954998 c 3.140999,-0.956999 7.442,-1.438999 12.92,-1.438999 2.625,0 5.072,0.135999 7.314999,0.397999 2.252001,0.262002 4.106,0.601002 5.554001,1.016001 m -0.643001,-7.417 c -3.039998,-0.838001 -7.094999,-1.262 -12.149999,-1.262 -5.097,0 -9.195001,0.432 -12.302,1.287001 l 0.373,2.506 c 3.123999,-0.813002 7.095,-1.219001 11.93,-1.219001 4.809,0 8.728999,0.397999 11.751999,1.194 l 0.397999,-2.506 m -11.361998,-4.293 c 2.845,0.051 5.182,0.195 6.999999,0.423 1.811999,0.229 3.454001,0.508 4.911,0.820999 0.906,-0.897999 1.913002,-1.743999 3.020001,-2.556999 1.109,-0.813 1.888,-1.507 2.337001,-2.083 0.786999,-1.075 1.184998,-2.413 1.184998,-4.02 0,-1.465 -0.356,-2.701 -1.066998,-3.692 -1.270001,-1.871 -3.217001,-2.803 -5.825002,-2.803 -1.523999,0 -3.106999,0.33 -4.767,0.991 -1.506999,0.593 -2.590999,1.236 -3.276999,1.93 -1.405,1.363 -2.43,3.15 -3.073,5.359 -0.245,0.762 -0.381,1.727 -0.406,2.904 -0.025,1.177 -0.042,2.083 -0.042,2.726 m 1.812,-1.93 c 0,-0.483 0.059,-1.16 0.161,-2.049 0.11,-0.881 0.279,-1.575 0.508,-2.074 0.618,-1.338 1.49,-2.574 2.633,-3.717 0.33,-0.33 1.041,-0.779 2.133999,-1.338 1.075001,-0.533 2.227002,-0.796 3.446001,-0.796 0.931001,0 1.846001,0.161 2.768998,0.483 0.914001,0.322 1.609003,0.813 2.066002,1.482 0.415,0.559 0.627,1.465 0.627,2.726 0,0.991 -0.406,1.913 -1.218999,2.777 -0.525002,0.542 -1.101002,1.092 -1.710002,1.651 -0.609999,0.55 -1.201998,1.202 -1.761001,1.947 -0.956999,-0.33 -2.293997,-0.593 -4,-0.77 -1.709998,-0.186 -3.589998,-0.288 -5.646998,-0.322"
       id="path1639"
       style="fill:url(#0-1);stroke-width:1" />
  </g>
</svg>
