<?xml version="1.0" encoding="UTF-8" standalone="no"?>
<svg
   xmlns:dc="http://purl.org/dc/elements/1.1/"
   xmlns:cc="http://creativecommons.org/ns#"
   xmlns:rdf="http://www.w3.org/1999/02/22-rdf-syntax-ns#"
   xmlns:svg="http://www.w3.org/2000/svg"
   xmlns="http://www.w3.org/2000/svg"
   xmlns:sodipodi="http://sodipodi.sourceforge.net/DTD/sodipodi-0.dtd"
   xmlns:inkscape="http://www.inkscape.org/namespaces/inkscape"
   width="177.17"
   height="177.17"
   shape-rendering="geometricPrecision"
   image-rendering="optimizeQuality"
   fill-rule="evenodd"
   clip-rule="evenodd"
   viewBox="0 0 50 50"
   version="1.1"
   id="svg2327"
   sodipodi:docname="WMountedKing.svg"
   inkscape:version="1.0.1 (3bc2e813f5, 2020-09-07)">
  <metadata
     id="metadata2331">
    <rdf:RDF>
      <cc:Work
         rdf:about="">
        <dc:format>image/svg+xml</dc:format>
        <dc:type
           rdf:resource="http://purl.org/dc/dcmitype/StillImage" />
        <dc:title></dc:title>
      </cc:Work>
    </rdf:RDF>
  </metadata>
  <sodipodi:namedview
     pagecolor="#ffffff"
     bordercolor="#666666"
     borderopacity="1"
     objecttolerance="10"
     gridtolerance="10"
     guidetolerance="10"
     inkscape:pageopacity="0"
     inkscape:pageshadow="2"
     inkscape:window-width="1918"
     inkscape:window-height="2037"
     id="namedview2329"
     showgrid="false"
     inkscape:zoom="4.0230493"
     inkscape:cx="112.97427"
     inkscape:cy="71.548913"
     inkscape:window-x="1909"
     inkscape:window-y="0"
     inkscape:window-maximized="0"
     inkscape:current-layer="svg2327" />
  <defs
     id="defs2321">
    <linearGradient
       id="0"
       x1="21.405"
       x2="77.64"
       gradientUnits="userSpaceOnUse">
      <stop
         stop-color="#fff"
         id="stop2316" />
      <stop
         offset="1"
         stop-color="#fff"
         stop-opacity="0"
         id="stop2318" />
    </linearGradient>
    <linearGradient
       id="0-7"
       x1="21.375999"
       x2="77.639999"
       gradientUnits="userSpaceOnUse"
       gradientTransform="translate(14.339708,9.5825318)">
      <stop
         stop-color="#fff"
         id="stop2919" />
      <stop
         offset="1"
         stop-color="#fff"
         stop-opacity="0"
         id="stop2921" />
    </linearGradient>
  </defs>
  <g
     id="g2896"
     transform="matrix(0.6174286,0,0,0.6174286,8.7133726,17.773503)">
    <path
       fill="#1f1a17"
       d="m 26.18,9.395 c 2.599,0.169 5,0.838 7.222,2.02 2.21,1.168 4.098,2.675 5.656,4.513 1.092,1.287 2.117,2.845 3.082,4.665 0.974,1.812 1.744,3.742 2.32,5.774 0.66,2.371 1.084,4.851 1.253,7.459 0.178,2.599 0.263,5.01 0.263,7.23 v 5.402 H 42.115 32.105 15.468 c -0.152,0 -0.22,-0.406 -0.212,-1.211 0.008,-0.813 0.059,-1.465 0.161,-1.964 0.059,-0.398 0.22,-0.957 0.466,-1.685 0.254,-0.728 0.66,-1.609 1.245,-2.65 0.262,-0.533 0.889,-1.304 1.88,-2.32 0.999,-1.016 2.134,-2.201 3.429,-3.539 0.745,-0.762 1.321,-1.719 1.744,-2.879 0.423,-1.151 0.601,-2.201 0.533,-3.15 -0.61,0.5 -1.279,0.906 -2.01,1.219 -3.505,1.253 -6.05,3.073 -7.611,5.452 -0.119,0.152 -0.491,0.821 -1.118,2.02 -0.33,0.627 -0.618,1.058 -0.847,1.287 -0.313,0.313 -0.771,0.491 -1.363,0.525 C 10.842,37.605 10.122,37.165 9.606,36.217 8.912,36.42 8.294,36.505 7.743,36.471 6.82,36.124 6.151,35.751 5.733,35.353 4.886,34.506 4.344,33.668 4.082,32.821 3.828,31.974 3.701,31.068 3.701,30.095 c 0,-1.389 0.855,-3.226 2.582,-5.512 2.02,-2.625 3.09,-4.631 3.217,-6 0,-0.593 0.059,-1.262 0.178,-2.01 0.102,-0.517 0.305,-1.01 0.618,-1.49 0.22,-0.33 0.364,-0.559 0.432,-0.677 0.076,-0.127 0.212,-0.313 0.415,-0.559 0.144,-0.203 0.271,-0.356 0.373,-0.457 0.093,-0.11 0.22,-0.254 0.373,-0.44 0.178,-0.212 0.406,-0.457 0.694,-0.745 7.871463,-3.8995594 3.789173,-5.8008303 7.213001,-1.93 0.55,-1.871 1.626,-3.387 3.226,-4.538 1.321,0.923 2.371,2.151 3.15,3.666"
       id="path2323"
       sodipodi:nodetypes="ccccccscccscccccccccccscccccscccccccccccc" />
    <path
       fill="url(#0)"
       d="m 42.976,44.693 c -0.017,0 0,-0.449 0.042,-1.346 0.051,-0.906 0.076,-1.88 0.076,-2.921 0.017,-2.066 0.017,-4.2 0,-6.409 -0.017,-2.21 -0.313,-4.411 -0.889,-6.613 -0.567,-2.117 -1.185,-3.92 -1.863,-5.419 -0.677,-1.499 -1.414,-2.786 -2.21,-3.878 -1.185,-1.786 -2.811,-3.302 -4.86,-4.538 -2.049,-1.245 -4.191,-2.057 -6.426,-2.438 0.152,0.813 0.22,1.609 0.203,2.388 -0.034,0.593 -0.313,0.889 -0.847,0.889 -0.61,0 -0.881,-0.296 -0.821,-0.889 0.051,-2.184 -0.728,-4.056 -2.328,-5.605 -1.253,1.321 -1.939,2.853 -2.032,4.606 -0.034,0.584 -0.33,0.838 -0.897,0.771 -0.525,-0.017 -0.787,-0.322 -0.787,-0.914 0,0 0.017,-0.068 0.042,-0.203 -0.677,0.22 -1.389,0.525 -2.134,0.923 -0.474,0.33 -0.864,0.245 -1.16,-0.246 -0.296,-0.499 -0.169,-0.889 0.398,-1.168 0.711,-0.364 1.245,-0.635 1.609,-0.821 C 16.67,9.406 15.950605,8.6114189 14.130605,7.7144189 14.325605,10.017419 14.062,11.81 15.12,13.868 c 0.279,0.423 0.212,0.804 -0.203,1.135 -0.466,0.364 -0.855,0.313 -1.168,-0.169 -0.11,-0.169 -0.279,-0.466 -0.491,-0.897 -0.347,0.347 -0.584,0.61 -0.694,0.77 -0.118,0.152 -0.322,0.483 -0.61,0.991 -0.288,0.516 -0.499,0.94 -0.635,1.27 -0.144,0.415 -0.212,0.745 -0.186,1.01 0.025,0.254 0.051,0.533 0.068,0.855 -0.152,0.974 -0.491,1.888 -1.01,2.752 -0.525,0.855 -1.185,1.905 -1.998,3.15 -0.779,1.185 -1.372,2.083 -1.786,2.675 -0.415,0.601 -0.728,1.355 -0.94,2.286 -0.152,0.559 -0.152,1.245 0,2.041 0.144,0.804 0.474,1.431 0.965,1.88 0.762,0.77 1.499,1.126 2.21,1.067 0.229,0 0.542,-0.093 0.931,-0.279 0.389,-0.178 0.686,-0.525 0.906,-1.041 0.423,-0.94 0.779,-1.414 1.067,-1.414 0.406,0 0.635,0.237 0.669,0.694 0,0.102 -0.136,0.517 -0.398,1.245 -0.152,0.33 -0.347,0.677 -0.593,1.041 -0.322,0.432 -0.457,0.61 -0.423,0.542 0.262,0.948 0.703,1.109 1.312,0.499 0.178,-0.178 0.389,-0.525 0.618,-1.016 0.237,-0.499 0.601,-1.168 1.092,-2.01 0.584,-0.982 1.202,-1.77 1.863,-2.388 0.66,-0.61 1.245,-1.109 1.761,-1.482 0.296,-0.22 0.66,-0.466 1.092,-0.745 0.432,-0.288 1.01,-0.576 1.736,-0.872 0.576,-0.229 1.219,-0.516 1.922,-0.855 0.703,-0.339 1.329,-0.77 1.871,-1.304 0.762,-0.745 1.346,-1.659 1.761,-2.752 0.22,-0.61 0.296,-1.363 0.245,-2.261 -0.144,-0.559 0.136,-0.838 0.847,-0.838 0.533,0 0.83,0.271 0.898,0.821 0,1.863 -0.533,3.564 -1.592,5.105 0.347,1.058 0.44,2.218 0.271,3.471 -0.144,1.01 -0.5,2.091 -1.05,3.243 -0.559,1.143 -1.676,2.422 -3.361,3.827 -3.429,2.845 -5.05,5.774 -4.86,8.78 h 4.225 7.95 13.572 M 9.336,29.615 c -0.483,0.296 -0.77,0.694 -0.872,1.194 0.017,0.542 -0.237,0.838 -0.762,0.889 -0.584,0.068 -0.881,-0.178 -0.898,-0.745 0.068,-1.092 0.55,-1.956 1.465,-2.599 0.432,-0.347 0.83,-0.322 1.194,0.093 0.364,0.449 0.322,0.838 -0.127,1.168 m 7.366,-11.828 c 0.212,0.33 0.296,0.677 0.246,1.041 -0.161,1.058 -0.754,1.499 -1.761,1.338 -0.296,-0.051 -0.533,-0.152 -0.72,-0.296 -0.059,0.076 -0.161,0.262 -0.296,0.542 -0.178,0.533 -0.525,0.711 -1.041,0.55 -0.508,-0.203 -0.711,-0.576 -0.593,-1.118 0.745,-1.905 2.091,-3.209 4.04,-3.92 0.567,-0.169 0.94,0 1.118,0.491 0.203,0.533 0.051,0.898 -0.449,1.092 -0.093,0.051 -0.186,0.102 -0.271,0.136 -0.085,0.042 -0.169,0.093 -0.271,0.144"
       id="path2325"
       style="fill:url(#0)"
       sodipodi:nodetypes="cccsccccccscccccccccccccccccccccccccccccscccccccccccscccscccccccccccccccccccccccccccc" />
  </g>
  <g
     id="g3538"
     transform="matrix(0.61422225,0.16458036,-0.16458036,0.61422225,10.033386,-10.731322)">
    <g
       fill="#1f1a17"
       id="g2930"
       transform="translate(14.339708,9.5825317)">
      <path
         d="M 25.821,12.02 H 24.06 V 8.769 h -2.066 c -0.559,0 -0.838,-0.271 -0.838,-0.821 V 7.923 c 0,-0.542 0.279,-0.813 0.838,-0.813 H 24.06 V 5.002 c 0,-0.584 0.296,-0.872 0.889,-0.872 0.576,0 0.872,0.288 0.872,0.872 V 7.11 h 2.134 c 0.542,0 0.813,0.271 0.813,0.813 v 0.025 c 0,0.55 -0.271,0.821 -0.813,0.821 l -2.117,0.025 -0.017,3.226"
         id="path2926" />
      <path
         d="m 11.03,37.744 -0.813,-4.64 C 10.2,33.104 10.175,33.07 10.141,33.002 10.056,32.884 9.819,32.731 9.43,32.545 9.049,32.35 8.592,32.029 8.084,31.563 7.356,30.953 6.789,30.454 6.382,30.073 5.976,29.7 5.611,29.286 5.281,28.837 4.271,27.448 3.706,25.772 3.596,23.797 3.427,21.9 4.197,20.004 5.899,18.116 c 1.719,-1.88 4.047,-2.769 6.968,-2.65 1.092,0.068 2.379,0.33 3.844,0.796 0.483,0.195 0.974,0.39 1.482,0.576 0.5,0.195 0.999,0.389 1.499,0.584 0.262,0.135 0.5,0.271 0.694,0.398 -0.085,-0.347 -0.127,-0.694 -0.127,-1.041 0,-1.287 0.457,-2.388 1.38,-3.302 0.914,-0.906 2.024,-1.372 3.311,-1.389 1.287,0 2.388,0.466 3.302,1.38 0.906,0.914 1.363,2.02 1.363,3.285 0,0.262 -0.034,0.61 -0.102,1.041 0.229,-0.144 0.457,-0.271 0.669,-0.372 0.762,-0.33 1.761,-0.72 3.01,-1.16 1.422,-0.483 2.701,-0.754 3.844,-0.821 2.921,-0.136 5.241,0.754 6.943,2.65 1.668,1.888 2.447,3.785 2.328,5.681 -0.127,1.973 -0.703,3.649 -1.71,5.04 -0.33,0.449 -0.703,0.864 -1.118,1.253 -0.406,0.39 -0.965,0.881 -1.66,1.473 -0.542,0.466 -1.01,0.796 -1.389,0.982 -0.381,0.186 -0.601,0.347 -0.669,0.457 -0.017,0.034 -0.034,0.059 -0.051,0.076 -0.017,0.017 -0.025,0.034 -0.025,0.051 l -0.796,4.665 1.643,6.121 c -0.83,0.745 -2.684,1.355 -5.554,1.837 -2.879,0.483 -6.206,0.72 -9.974,0.72 -3.835,0 -7.214,-0.254 -10.118,-0.754 C 11.974,45.185 10.145,44.55 9.4,43.796 l 1.634,-6.05"
         id="path2928" />
    </g>
    <path
       fill="url(#0)"
       d="m 40.135709,39.114532 c 2.845,0.034 5.444,0.203 7.805999,0.508 2.371,0.305 4.225002,0.694 5.563002,1.151 0.626999,-0.491 1.312,-1.041 2.056999,-1.651 0.744999,-0.601 1.362999,-1.219 1.862999,-1.846 0.787001,-1.01 1.185,-2.337 1.185,-3.996 0,-1.482 -0.356,-2.726 -1.067001,-3.717 -1.269997,-1.854 -3.208999,-2.777 -5.8,-2.777 -1.557998,0 -3.15,0.322 -4.791999,0.965 -1.438999,0.584 -2.531999,1.228 -3.267999,1.939 -1.389,1.389 -2.421,3.175 -3.082,5.351 -0.229,0.779 -0.364,1.49 -0.406,2.125 -0.042,0.635 -0.059,1.287 -0.059,1.947 m -13.250001,6.697001 c 3.141001,-0.796001 7.307001,-1.194 12.505001,-1.194 5.089,0 9.203,0.380999 12.327,1.142998 l 0.617999,-3.648998 c -3.326999,-0.872001 -7.670999,-1.312001 -13.049999,-1.312001 -5.41,0 -9.745001,0.449 -13.020001,1.337999 l 0.618,3.675001 m 25.298001,4.411001 -0.737001,-2.845002 c -3.276999,-0.727998 -7.331999,-1.091999 -12.157999,-1.091999 -4.809,0 -8.856001,0.364001 -12.133001,1.091999 l -0.787,2.870001 c 3.158001,-0.923001 7.468001,-1.389 12.945001,-1.389 5.444,0 9.727998,0.456999 12.868999,1.362999 m 0.652,2.337001 c -3.191999,-1.287001 -7.678999,-1.938999 -13.444999,-1.938999 -5.986,0 -10.516,0.659999 -13.598001,1.989998 2.913001,1.151002 7.417001,1.736 13.521001,1.736 2.913,0 5.563,-0.160998 7.959001,-0.483 2.403999,-0.321998 4.25,-0.761999 5.562998,-1.303999 m -14.418999,-13.445 c -0.008,-0.643 -0.034,-1.287 -0.068,-1.922 -0.034,-0.635 -0.161,-1.346 -0.372,-2.125 -0.677,-2.21 -1.702,-3.996 -3.082,-5.351 -0.711,-0.694 -1.795,-1.346 -3.268001,-1.939 -1.685,-0.66 -3.285,-0.991 -4.792,-0.991 -2.608,0 -4.547,0.931 -5.8,2.802 -0.711,0.991 -1.067,2.235 -1.067,3.717 0,1.626 0.398,2.955 1.185,3.996 0.483,0.61 1.092,1.228 1.837,1.837 0.745,0.61 1.439,1.168 2.083,1.66 2.896,-1.041 7.341001,-1.6 13.343001,-1.685 m 0.872,-4.614 c 0.119,-0.466 0.212,-0.787 0.296,-0.965 0.169,-0.643 0.356,-1.194 0.576,-1.643 0.093,-0.279 0.237,-0.601 0.432,-0.974 0.186,-0.373 0.389,-0.804 0.61,-1.279 0.127,-0.279 0.271,-0.627 0.415,-1.033 0.152,-0.406 0.305,-0.804 0.449,-1.202 0.135,-0.33 0.203,-0.686 0.203,-1.067 0,-0.813 -0.296,-1.499 -0.872,-2.066 -0.576,-0.576 -1.279,-0.864 -2.108,-0.864 -1.964,0 -2.955,0.991 -2.955,2.955 0,0.381 0.068,0.737 0.202999,1.067 0.364001,1.075 0.643001,1.82 0.838001,2.235 0.22,0.474 0.415,0.906 0.601,1.279 0.178,0.372 0.339,0.694 0.466,0.974 0.22,0.55 0.398,1.092 0.55,1.643 0.034,0.093 0.127,0.415 0.296,0.94"
       id="path2932"
       style="fill:url(#0-7);stroke-width:1" />
  </g>
</svg>
